<svg width="3137" height="1162" viewBox="0 0 3137 1162" fill="none" xmlns="http://www.w3.org/2000/svg">
<path d="M2770.57 529.181C2714.36 540.035 2666.9 603.797 2537.64 558.13L2517.66 706.087C2529.52 739.11 2577.98 803.225 2689.38 803.225C2800.79 803.225 2849.87 666.846 2858.61 585.791C2854.24 569.495 2826.77 518.328 2770.57 529.181Z" fill="#ECF8FE" stroke="#ECF8FE" stroke-width="24"/>
<mask id="mask0_2_231" style="mask-type:alpha" maskUnits="userSpaceOnUse" x="2453" y="167" width="495" height="693">
<path fill-rule="evenodd" clip-rule="evenodd" d="M2558.41 252.485V192.312C2558.41 179.057 2569.16 168.312 2582.41 168.312H2743.48C2756.73 168.312 2767.48 179.057 2767.48 192.312V274.618C2866.25 307.726 2946.96 385.783 2946.96 558.164C2946.96 818.914 2762.29 859.029 2609.78 859.029H2477.99C2464.73 859.029 2453.96 848.283 2453.96 835.029V276.485C2453.96 263.23 2464.72 252.485 2477.97 252.485L2558.41 252.485ZM2558.04 730.961V380.553L2648.07 380.553C2736.19 380.553 2842.88 406.509 2842.88 557.147C2842.88 707.786 2736.19 730.961 2648.07 730.961H2558.04Z" fill="#ECF8FE"/>
<path d="M2558.41 252.485V252.985H2558.91V252.485H2558.41ZM2767.48 274.618H2766.98V274.977L2767.32 275.092L2767.48 274.618ZM2477.97 252.485V251.985V252.485ZM2558.04 380.553V380.053H2557.54V380.553H2558.04ZM2558.04 730.961H2557.54V731.461H2558.04V730.961ZM2648.07 380.553V380.053V380.553ZM2557.91 192.312V252.485H2558.91V192.312H2557.91ZM2582.41 167.812C2568.88 167.812 2557.91 178.781 2557.91 192.312H2558.91C2558.91 179.334 2569.43 168.812 2582.41 168.812V167.812ZM2743.48 167.812L2582.41 167.812V168.812H2743.48V167.812ZM2767.98 192.312C2767.98 178.781 2757.01 167.812 2743.48 167.812V168.812C2756.46 168.812 2766.98 179.334 2766.98 192.312H2767.98ZM2767.98 274.618V192.312H2766.98V274.618H2767.98ZM2947.46 558.164C2947.46 471.894 2927.26 409.176 2894.67 363.871C2862.07 318.567 2817.1 290.723 2767.64 274.144L2767.32 275.092C2816.63 291.621 2861.4 319.359 2893.85 364.455C2926.3 409.552 2946.46 472.052 2946.46 558.164H2947.46ZM2609.78 859.529C2686.06 859.529 2770.48 849.5 2835.84 806.796C2901.23 764.064 2947.46 688.674 2947.46 558.164H2946.46C2946.46 688.403 2900.35 763.446 2835.29 805.959C2770.18 848.499 2686.01 858.529 2609.78 858.529V859.529ZM2477.99 859.529H2609.78V858.529H2477.99V859.529ZM2453.46 835.029C2453.46 848.56 2464.46 859.529 2477.99 859.529V858.529C2465.01 858.529 2454.46 848.006 2454.46 835.029H2453.46ZM2453.46 276.485V835.029H2454.46V276.485H2453.46ZM2477.97 251.985C2464.44 251.985 2453.46 262.954 2453.46 276.485H2454.46C2454.46 263.507 2464.99 252.985 2477.97 252.985V251.985ZM2558.41 251.985L2477.97 251.985V252.985L2558.41 252.985V251.985ZM2557.54 380.553V730.961H2558.54V380.553H2557.54ZM2648.07 380.053L2558.04 380.053V381.053L2648.07 381.053V380.053ZM2843.38 557.147C2843.38 481.693 2816.65 437.374 2778.8 411.946C2740.98 386.543 2692.16 380.053 2648.07 380.053V381.053C2692.09 381.053 2740.68 387.541 2778.24 412.776C2815.77 437.985 2842.38 481.963 2842.38 557.147H2843.38ZM2648.07 731.461C2692.15 731.461 2740.98 725.668 2778.79 700.962C2816.65 676.229 2843.38 632.602 2843.38 557.147H2842.38C2842.38 632.331 2815.77 675.611 2778.25 700.125C2740.68 724.666 2692.1 730.461 2648.07 730.461V731.461ZM2558.04 731.461H2648.07V730.461H2558.04V731.461Z" fill="#ECF8FE"/>
<path d="M2655.74 572.095L2689.31 451.449C2689.62 450.327 2691.27 450.553 2691.27 451.717V544.547C2691.27 545.099 2691.72 545.547 2692.27 545.547H2726.09C2727.41 545.547 2728.37 546.809 2728.02 548.084L2693.23 672.734C2692.92 673.855 2691.27 673.629 2691.27 672.466V575.631C2691.27 575.079 2690.82 574.631 2690.27 574.631H2657.67C2656.35 574.631 2655.39 573.37 2655.74 572.095Z" fill="#78D7D3" stroke="#78D7D3" stroke-width="16"/>
</mask>
<g mask="url(#mask0_2_231)">
<rect x="3360.16" y="-611.621" width="1710.36" height="1911.1" transform="rotate(69 3360.16 -611.621)" fill="url(#paint0_linear_2_231)"/>
</g>
<mask id="mask1_2_231" style="mask-type:alpha" maskUnits="userSpaceOnUse" x="194" y="277" width="2169" height="756">
<path d="M409.416 867.835C364.719 867.835 326.272 858.365 294.075 839.426C262.067 820.297 237.446 793.782 220.211 759.88C203.166 725.979 194.643 686.964 194.643 642.835C194.643 598.138 203.26 558.933 220.495 525.221C237.92 491.32 262.635 464.899 294.643 445.96C326.651 426.831 364.719 417.267 408.848 417.267C446.916 417.267 480.249 424.18 508.848 438.005C537.446 451.831 560.079 471.244 576.745 496.244C593.412 521.244 602.598 550.6 604.302 584.312H490.098C486.878 562.532 478.355 545.013 464.529 531.755C450.893 518.308 432.995 511.585 410.836 511.585C392.086 511.585 375.704 516.699 361.688 526.926C347.863 536.964 337.067 551.642 329.302 570.96C321.537 590.278 317.654 613.668 317.654 641.13C317.654 668.971 321.442 692.646 329.018 712.153C336.783 731.661 347.673 746.528 361.688 756.755C375.704 766.983 392.086 772.096 410.836 772.096C424.662 772.096 437.067 769.255 448.052 763.574C459.226 757.892 468.412 749.653 475.609 738.858C482.995 727.873 487.825 714.71 490.098 699.369H604.302C602.408 732.702 593.317 762.058 577.029 787.437C560.931 812.627 538.677 832.324 510.268 846.528C481.859 860.733 448.241 867.835 409.416 867.835ZM802.811 607.04V859.312H681.788V277.494H799.402V499.937H804.515C814.364 474.18 830.273 454.009 852.242 439.426C874.212 424.653 901.769 417.267 934.913 417.267C965.216 417.267 991.636 423.896 1014.17 437.153C1036.9 450.221 1054.52 469.066 1067.02 493.687C1079.7 518.119 1085.95 547.38 1085.77 581.471V859.312H964.742V603.062C964.932 576.168 958.114 555.24 944.288 540.278C930.652 525.316 911.523 517.835 886.902 517.835C870.424 517.835 855.841 521.339 843.152 528.346C830.652 535.354 820.803 545.581 813.606 559.028C806.598 572.286 803 588.29 802.811 607.04ZM1305.44 867.551C1277.6 867.551 1252.79 862.721 1231.01 853.062C1209.23 843.214 1191.99 828.725 1179.3 809.596C1166.8 790.278 1160.55 766.225 1160.55 737.437C1160.55 713.195 1165 692.835 1173.9 676.358C1182.81 659.88 1194.93 646.623 1210.27 636.585C1225.61 626.547 1243.03 618.971 1262.54 613.858C1282.24 608.744 1302.88 605.146 1324.47 603.062C1349.85 600.411 1370.31 597.949 1385.84 595.676C1401.37 593.214 1412.64 589.615 1419.64 584.88C1426.65 580.146 1430.15 573.138 1430.15 563.858V562.153C1430.15 544.161 1424.47 530.24 1413.11 520.392C1401.93 510.543 1386.03 505.619 1365.38 505.619C1343.6 505.619 1326.27 510.449 1313.39 520.108C1300.51 529.577 1291.99 541.509 1287.82 555.903L1175.89 546.812C1181.57 520.297 1192.75 497.38 1209.42 478.062C1226.08 458.555 1247.58 443.593 1273.9 433.176C1300.42 422.57 1331.1 417.267 1365.95 417.267C1390.19 417.267 1413.39 420.108 1435.55 425.79C1457.9 431.471 1477.69 440.278 1494.93 452.21C1512.35 464.142 1526.08 479.483 1536.12 498.233C1546.16 516.793 1551.18 539.047 1551.18 564.994V859.312H1436.4V798.801H1433C1425.99 812.437 1416.61 824.464 1404.87 834.88C1393.13 845.108 1379.02 853.157 1362.54 859.028C1346.06 864.71 1327.03 867.551 1305.44 867.551ZM1340.1 784.028C1357.9 784.028 1373.62 780.524 1387.26 773.517C1400.89 766.32 1411.59 756.661 1419.36 744.54C1427.12 732.418 1431.01 718.687 1431.01 703.346V657.04C1427.22 659.502 1422.01 661.774 1415.38 663.858C1408.94 665.752 1401.65 667.551 1393.51 669.255C1385.36 670.771 1377.22 672.191 1369.07 673.517C1360.93 674.653 1353.54 675.695 1346.92 676.642C1332.71 678.725 1320.31 682.04 1309.7 686.585C1299.09 691.13 1290.86 697.286 1284.98 705.051C1279.11 712.627 1276.18 722.096 1276.18 733.46C1276.18 749.937 1282.14 762.532 1294.07 771.244C1306.2 779.767 1321.54 784.028 1340.1 784.028ZM1645.07 859.312V422.949H1762.4V499.085H1766.94C1774.9 472.002 1788.25 451.547 1807 437.721C1825.75 423.706 1847.34 416.699 1871.77 416.699C1877.83 416.699 1884.37 417.077 1891.38 417.835C1898.38 418.593 1904.54 419.634 1909.84 420.96V528.346C1904.16 526.642 1896.3 525.127 1886.26 523.801C1876.22 522.475 1867.04 521.812 1858.71 521.812C1840.9 521.812 1824.99 525.695 1810.98 533.46C1797.15 541.036 1786.17 551.642 1778.02 565.278C1770.07 578.915 1766.09 594.634 1766.09 612.437V859.312H1645.07ZM2148.69 1032.04C2109.49 1032.04 2075.87 1026.64 2047.84 1015.85C2020 1005.24 1997.84 990.752 1981.36 972.38C1964.88 954.009 1954.18 933.365 1949.26 910.449L2061.19 895.392C2064.6 904.104 2070 912.248 2077.38 919.824C2084.77 927.399 2094.52 933.46 2106.65 938.005C2118.96 942.74 2133.92 945.108 2151.53 945.108C2177.86 945.108 2199.54 938.668 2216.59 925.79C2233.82 913.1 2242.44 891.793 2242.44 861.869V782.04H2237.33C2232.02 794.161 2224.07 805.619 2213.46 816.415C2202.86 827.21 2189.22 836.017 2172.55 842.835C2155.89 849.653 2136 853.062 2112.9 853.062C2080.13 853.062 2050.3 845.486 2023.41 830.335C1996.7 814.994 1975.4 791.604 1959.49 760.165C1943.77 728.536 1935.91 688.574 1935.91 640.278C1935.91 590.846 1943.96 549.558 1960.05 516.415C1976.15 483.271 1997.55 458.46 2024.26 441.983C2051.15 425.505 2080.6 417.267 2112.61 417.267C2137.04 417.267 2157.5 421.433 2173.98 429.767C2190.45 437.911 2203.71 448.138 2213.75 460.449C2223.98 472.57 2231.84 484.502 2237.33 496.244H2241.87V422.949H2362.04V863.574C2362.04 900.695 2352.95 931.755 2334.77 956.755C2316.59 981.755 2291.4 1000.51 2259.2 1013.01C2227.2 1025.69 2190.36 1032.04 2148.69 1032.04ZM2151.25 762.153C2170.76 762.153 2187.23 757.324 2200.68 747.665C2214.32 737.816 2224.73 723.801 2231.93 705.619C2239.32 687.248 2243.01 665.278 2243.01 639.71C2243.01 614.142 2239.41 591.983 2232.21 573.233C2225.02 554.293 2214.6 539.615 2200.96 529.199C2187.33 518.782 2170.76 513.574 2151.25 513.574C2131.36 513.574 2114.6 518.971 2100.96 529.767C2087.33 540.373 2077.01 555.146 2070 574.085C2062.99 593.024 2059.49 614.899 2059.49 639.71C2059.49 664.899 2062.99 686.68 2070 705.051C2077.2 723.233 2087.52 737.343 2100.96 747.38C2114.6 757.229 2131.36 762.153 2151.25 762.153Z" fill="white"/>
</mask>
<g mask="url(#mask1_2_231)">
<rect x="2243.83" y="-1272" width="2282.94" height="3271.09" transform="rotate(69 2243.83 -1272)" fill="url(#paint1_linear_2_231)"/>
</g>
<defs>
<linearGradient id="paint0_linear_2_231" x1="4417.66" y1="775.7" x2="4045.35" y2="141.125" gradientUnits="userSpaceOnUse">
<stop stop-color="#D9C7FF"/>
<stop offset="0.5" stop-color="#78CBF6"/>
<stop offset="1" stop-color="#78D7D3"/>
</linearGradient>
<linearGradient id="paint1_linear_2_231" x1="3501.46" y1="1350.72" x2="3910.34" y2="-805.316" gradientUnits="userSpaceOnUse">
<stop stop-color="#D9C7FF"/>
<stop offset="0.5" stop-color="#78CBF6"/>
<stop offset="1" stop-color="#78D7D3"/>
</linearGradient>
</defs>
</svg>
